<?xml version="1.0" standalone="no"?>
<!DOCTYPE svg PUBLIC "-//W3C//DTD SVG 20010904//EN"
 "http://www.w3.org/TR/2001/REC-SVG-20010904/DTD/svg10.dtd">
<svg version="1.0" xmlns="http://www.w3.org/2000/svg"
 width="200.000000pt" height="200.000000pt" viewBox="0 0 200.000000 200.000000"
 preserveAspectRatio="xMidYMid meet">
<metadata>
Created by potrace 1.11, written by Peter Selinger 2001-2013
</metadata>
<g transform="translate(0.000000,200.000000) scale(0.100000,-0.100000)"
fill="#000000" stroke="none">
<path d="M585 1771 c-47 -12 -74 -33 -94 -74 -22 -44 -19 -87 10 -134 20 -33
33 -40 89 -54 44 -10 108 18 132 59 l17 28 188 -1 c103 0 198 3 211 9 24 10
30 49 10 63 -7 4 -96 9 -198 10 -102 1 -190 2 -197 2 -6 1 -20 15 -30 31 -14
25 -87 73 -104 69 -2 -1 -17 -4 -34 -8z m73 -125 c4 -35 -14 -56 -49 -56 -58
0 -71 70 -18 97 31 16 63 -3 67 -41z"/>
<path d="M1320 1769 c-52 -22 -78 -62 -85 -134 -5 -52 56 -115 118 -122 l44
-5 98 -170 c54 -93 105 -172 113 -175 19 -8 46 9 50 31 2 9 -26 67 -61 129
-36 62 -75 131 -87 152 -12 22 -27 46 -33 53 -8 10 -6 21 7 43 34 58 16 147
-38 182 -32 21 -94 29 -126 16z m86 -94 c21 -21 23 -28 13 -47 -15 -29 -28
-38 -55 -38 -47 0 -63 84 -19 101 31 12 34 11 61 -16z"/>
<path d="M479 1454 c-7 -8 -56 -86 -108 -172 l-96 -157 -42 -1 c-54 -1 -90
-26 -114 -78 -30 -70 -2 -143 68 -172 18 -8 45 -14 60 -14 34 0 87 31 107 62
21 34 26 93 10 124 -8 14 -14 31 -14 36 0 6 45 85 101 176 89 146 100 168 90
189 -12 26 -43 30 -62 7z m-207 -417 c31 -24 27 -73 -7 -89 -38 -17 -75 3 -75
41 0 51 44 77 82 48z"/>
<path d="M895 1389 c-89 -20 -190 -89 -244 -167 -80 -115 -96 -302 -22 -262
23 12 23 11 26 55 6 84 56 180 124 235 43 37 118 66 186 73 28 3 51 6 51 6 1
1 4 10 7 21 12 44 -38 59 -128 39z"/>
<path d="M949 1260 c-122 -20 -219 -119 -233 -239 -4 -39 11 -71 33 -71 20 0
39 30 44 69 11 86 85 156 177 168 50 7 68 32 42 61 -14 16 -24 18 -63 12z"/>
<path d="M940 1112 c-54 -24 -81 -64 -82 -122 -2 -130 174 -179 242 -67 52 84
-12 198 -110 196 -19 0 -42 -3 -50 -7z m77 -77 c33 -23 35 -54 7 -82 -18 -18
-30 -22 -47 -18 -47 15 -61 61 -27 95 24 24 38 25 67 5z"/>
<path d="M1700 1113 c-28 -10 -70 -56 -81 -90 -9 -27 -8 -44 5 -83 l16 -48
-101 -166 c-55 -91 -99 -173 -97 -182 4 -22 31 -39 50 -31 9 3 61 81 118 174
97 160 104 169 130 165 39 -6 99 25 121 62 40 66 12 163 -56 192 -35 14 -77
17 -105 7z m82 -90 c22 -20 23 -51 1 -75 -19 -21 -43 -23 -65 -5 -28 21 -31
54 -9 76 25 25 48 27 73 4z"/>
<path d="M1197 1012 c-10 -10 -15 -21 -12 -24 3 -2 -2 -27 -10 -55 -23 -78
-108 -143 -186 -143 -40 0 -50 -69 -11 -71 114 -7 230 71 266 179 34 97 3 170
-47 114z"/>
<path d="M1338 1019 c-12 -7 -18 -22 -18 -49 0 -88 -68 -204 -149 -256 -59
-38 -77 -45 -136 -51 -62 -7 -85 -18 -85 -42 0 -31 26 -44 77 -38 130 16 234
80 303 187 55 85 83 215 54 245 -18 17 -23 18 -46 4z"/>
<path d="M329 797 c-9 -21 1 -44 86 -192 l97 -168 -16 -34 c-27 -56 -19 -115
20 -159 35 -38 109 -53 153 -29 129 66 87 254 -57 255 -24 0 -36 16 -116 158
-49 86 -96 165 -104 175 -21 24 -50 21 -63 -6z m326 -431 c12 -18 13 -30 6
-50 -6 -14 -14 -27 -18 -27 -41 -7 -55 -4 -68 15 -19 27 -19 51 1 70 23 24 61
20 79 -8z"/>
<path d="M1305 455 c-16 -9 -40 -30 -52 -49 l-21 -33 -195 0 c-107 -1 -200 -4
-206 -7 -15 -9 -14 -49 1 -64 9 -9 69 -12 208 -12 l196 0 23 -31 c77 -104 241
-52 241 76 0 102 -104 165 -195 120z m99 -81 c34 -33 5 -98 -39 -89 -11 2 -23
4 -28 4 -4 1 -12 13 -18 27 -20 54 45 99 85 58z"/>
</g>
</svg>
